<?xml version="1.0" standalone="no"?>
<!DOCTYPE svg PUBLIC "-//W3C//DTD SVG 20010904//EN"
 "http://www.w3.org/TR/2001/REC-SVG-20010904/DTD/svg10.dtd">
<svg version="1.0" xmlns="http://www.w3.org/2000/svg"
 width="500.000000pt" height="500.000000pt" viewBox="0 0 500.000000 500.000000"
 preserveAspectRatio="xMidYMid meet">

<g transform="translate(0.000000,500.000000) scale(0.100000,-0.100000)"
fill="#000000" stroke="none">
<path d="M3694 4981 c-20 -12 -34 -32 -42 -59 -7 -23 -28 -71 -47 -107 -19
-36 -35 -76 -35 -90 0 -14 -4 -25 -10 -25 -17 0 -11 -36 13 -71 l22 -34 80 3
c65 3 95 -1 160 -23 67 -22 91 -25 150 -20 39 3 75 2 81 -2 17 -13 70 -113
109 -207 64 -155 76 -220 85 -441 7 -169 24 -312 46 -388 9 -29 -76 -61 -135
-51 -25 4 -82 8 -126 8 -68 0 -90 -4 -145 -29 -69 -32 -157 -97 -202 -149
l-27 -31 -223 3 c-201 3 -229 1 -280 -17 -84 -29 -164 -86 -219 -157 -68 -86
-83 -91 -222 -70 -118 19 -227 50 -239 69 -13 20 -9 27 32 64 27 25 40 44 40
62 -1 36 -42 173 -79 262 -20 48 -31 90 -31 122 0 44 -4 52 -60 112 -44 47
-60 72 -60 93 0 22 -29 58 -139 177 -155 166 -172 177 -307 196 -91 12 -174
-1 -261 -42 -81 -38 -250 -164 -268 -198 -26 -52 -65 -228 -65 -298 0 -130 87
-258 223 -328 40 -21 92 -54 117 -75 25 -20 70 -53 101 -72 97 -62 179 -216
163 -305 -5 -31 -27 -59 -112 -145 l-106 -108 -105 1 c-277 2 -469 -128 -597
-406 -19 -41 -40 -100 -46 -131 -10 -52 -15 -58 -67 -93 -63 -43 -141 -123
-164 -167 -8 -16 -22 -54 -32 -84 -23 -71 -30 -78 -43 -40 -6 17 -26 50 -45
73 -52 64 -135 198 -151 244 -23 64 -39 185 -35 259 6 99 30 132 149 209 73
47 104 74 128 112 17 27 52 64 77 82 25 18 45 40 45 49 -1 9 -16 44 -34 77
-30 55 -38 62 -92 83 -32 13 -86 36 -120 52 -37 18 -69 27 -83 23 -16 -4 -59
-67 -153 -226 -183 -309 -202 -359 -213 -570 -3 -66 -17 -174 -31 -240 -23
-110 -25 -135 -19 -257 14 -305 48 -450 151 -652 48 -94 61 -111 95 -129 101
-51 278 -46 373 11 28 17 107 58 176 90 302 145 380 204 550 416 l98 124 49
-65 c68 -90 201 -314 230 -387 22 -53 25 -78 26 -192 1 -113 -3 -146 -26 -236
-15 -58 -32 -147 -37 -199 -8 -73 -19 -115 -51 -190 -23 -53 -54 -131 -70
-173 l-28 -78 904 0 c498 0 905 3 905 8 0 4 -22 72 -50 152 -39 115 -51 168
-60 255 -6 61 -30 184 -53 275 -37 149 -42 177 -41 285 0 130 -4 115 83 314
23 51 68 184 101 295 32 111 75 238 95 281 59 127 74 179 96 333 43 304 91
352 416 417 288 58 368 109 714 455 141 142 251 260 259 279 12 30 11 45 -9
135 -50 221 -144 447 -260 623 -64 98 -231 332 -268 377 -13 16 -37 56 -53 90
-33 70 -44 84 -85 110 -48 31 -266 195 -314 237 -81 71 -203 99 -267 60z"/>
</g>
</svg>
